<svg id="Layer_1" data-name="Layer 1" xmlns="http://www.w3.org/2000/svg" viewBox="0 0 556 84"><defs><style>.cls-1{fill:#00a5a6;}.cls-2{fill:#373331;}.cls-3{fill:#009fe3;}.cls-4{fill:#676766;}</style></defs><title>Artboard 1</title><path class="cls-1" d="M29.71,44.62c-7.48,0-12.89-6.25-12.89-13.95s5.41-13.84,12.89-13.84c4.46,0,7.81,2,10.94,4.85l4.41-5.08a20.36,20.36,0,0,0-15.29-6.08c-11.83,0-20.14,9.09-20.14,20.26S18.1,50.93,29.49,50.93c7.31,0,11.77-2.68,15.85-6.92l-4.41-4.46c-3.35,3.12-6.42,5.08-11.22,5.08"/><path class="cls-1" d="M107.92,11.2H94V50.26h13.9c12.28,0,20.76-8.54,20.76-19.59S120.2,11.2,107.92,11.2m0,32.81h-7V17.45h7c8.2,0,13.56,5.64,13.56,13.34S116.12,44,107.92,44"/><path class="cls-1" d="M90.78,24.31c0-8-5.75-13.11-14.84-13.11H61.26V50.26h6.86V37.7h7c8.59,0,15.62-4.58,15.62-13.39m-7,0c0,3.8-3.24,7.11-8.42,7.11H71.54l-3.41,3.37v-13c0-2.67,1.46-4.36,4.4-4.36h2.85c4.66,0,8.42,2.69,8.42,6.89"/><rect class="cls-1" x="49.01" y="11.2" width="6.83" height="39.06"/><path class="cls-1" d="M11.49,62.8h7v1H12.58v3.29h5.26v1H12.58v3.37h5.95v1h-7Z"/><path class="cls-1" d="M20.54,65.32H21.6v1.24A2.7,2.7,0,0,1,24,65.16,2.6,2.6,0,0,1,26.77,68v4.42H25.71V68.28a1.9,1.9,0,0,0-2-2.15,2.09,2.09,0,0,0-2.13,2.23v4.08H20.54Z"/><path class="cls-1" d="M29.4,70.55v-4.3h-1v-.94h1V63.17h1.06v2.15h2.26v.94H30.46v4.16a1.05,1.05,0,0,0,1.2,1.18,2.23,2.23,0,0,0,1-.25v.91a2.66,2.66,0,0,1-1.28.3A1.81,1.81,0,0,1,29.4,70.55Z"/><path class="cls-1" d="M33.94,68.9v0a3.51,3.51,0,0,1,3.41-3.7c2.11,0,3.32,1.68,3.32,3.76a2.77,2.77,0,0,1,0,.34H35a2.49,2.49,0,0,0,2.51,2.41,3,3,0,0,0,2.24-1l.66.59A3.68,3.68,0,0,1,37.5,72.6,3.54,3.54,0,0,1,33.94,68.9Zm5.66-.41a2.34,2.34,0,0,0-2.27-2.42A2.45,2.45,0,0,0,35,68.48Z"/><path class="cls-1" d="M42.54,65.32H43.6v1.86a3,3,0,0,1,2.91-2v1.14h-.08c-1.56,0-2.82,1.12-2.82,3.26v2.84H42.54Z"/><path class="cls-1" d="M48.12,65.32h1.06v1.43a3.2,3.2,0,0,1,2.73-1.58,3.47,3.47,0,0,1,3.4,3.69v0a3.49,3.49,0,0,1-3.4,3.7,3.21,3.21,0,0,1-2.73-1.51v3.57H48.12Zm6.1,3.58v0a2.56,2.56,0,0,0-2.51-2.75,2.65,2.65,0,0,0-2.58,2.74v0a2.65,2.65,0,0,0,2.58,2.75A2.51,2.51,0,0,0,54.22,68.9Z"/><path class="cls-1" d="M57.26,65.32h1.06v1.86a3,3,0,0,1,2.91-2v1.14h-.08c-1.56,0-2.82,1.12-2.82,3.26v2.84H57.26Z"/><path class="cls-1" d="M62.87,62.59h1.21v1.17H62.87Zm.07,2.73H64v7.12H62.94Z"/><path class="cls-1" d="M65.87,71.53l.54-.76a4.16,4.16,0,0,0,2.46.91c.85,0,1.47-.44,1.47-1.13v0c0-.72-.84-1-1.78-1.25-1.12-.32-2.35-.7-2.35-2v0a2.15,2.15,0,0,1,2.42-2A4.86,4.86,0,0,1,71.2,66l-.48.8a4,4,0,0,0-2.11-.69c-.84,0-1.38.44-1.38,1v0c0,.67.88.94,1.83,1.23,1.1.33,2.29.76,2.29,2v0c0,1.35-1.12,2.13-2.53,2.13A4.89,4.89,0,0,1,65.87,71.53Z"/><path class="cls-1" d="M72.88,68.9v0a3.51,3.51,0,0,1,3.41-3.7c2.11,0,3.32,1.68,3.32,3.76a2.71,2.71,0,0,1,0,.34H74a2.49,2.49,0,0,0,2.51,2.41,3,3,0,0,0,2.25-1l.66.59a3.68,3.68,0,0,1-2.93,1.34A3.54,3.54,0,0,1,72.88,68.9Zm5.66-.41a2.34,2.34,0,0,0-2.27-2.42A2.45,2.45,0,0,0,74,68.48Z"/><path class="cls-1" d="M80.88,71.53l.54-.76a4.16,4.16,0,0,0,2.46.91c.85,0,1.47-.44,1.47-1.13v0c0-.72-.84-1-1.78-1.25-1.12-.32-2.36-.7-2.36-2v0a2.15,2.15,0,0,1,2.42-2,4.86,4.86,0,0,1,2.56.79l-.48.8a4,4,0,0,0-2.11-.69c-.84,0-1.38.44-1.38,1v0c0,.67.88.94,1.83,1.23,1.1.33,2.29.76,2.29,2v0c0,1.35-1.12,2.13-2.53,2.13A4.9,4.9,0,0,1,80.88,71.53Z"/><path class="cls-1" d="M92.64,62.8h1.09v8.63h5.43v1H92.64Z"/><path class="cls-1" d="M100.81,70.55v-4.3h-1v-.94h1V63.17h1.06v2.15h2.26v.94h-2.26v4.16a1.05,1.05,0,0,0,1.2,1.18,2.23,2.23,0,0,0,1-.25v.91a2.66,2.66,0,0,1-1.28.3A1.81,1.81,0,0,1,100.81,70.55Z"/><path class="cls-1" d="M105.39,68.9v0a3.49,3.49,0,0,1,3.4-3.7,3.21,3.21,0,0,1,2.73,1.51v-4.3h1.06V72.43h-1.06V71a3.2,3.2,0,0,1-2.73,1.58A3.47,3.47,0,0,1,105.39,68.9Zm6.17,0v0A2.65,2.65,0,0,0,109,66.11a2.51,2.51,0,0,0-2.51,2.74v0A2.57,2.57,0,0,0,109,71.64,2.66,2.66,0,0,0,111.55,68.88Z"/><path class="cls-2" d="M362.08,26.73h6.38L381.94,58.4H374.7l-2.88-7.05h-13.3l-2.88,7.05H348.6Zm7.28,18.51L365.18,35,361,45.23Z"/><path class="cls-2" d="M376,26.95h7.64l8.22,22.15,8.22-22.15h7.46L394.83,58.62h-6.11Z"/><path class="cls-2" d="M415.09,26.73h6.38L434.95,58.4h-7.23l-2.88-7.05h-13.3l-2.88,7.05h-7.05Zm7.28,18.51L418.19,35,414,45.23Z"/><path class="cls-2" d="M438.06,26.95h12.26c9.88,0,16.71,6.78,16.71,15.63v.09c0,8.85-6.83,15.72-16.71,15.72H438.06ZM445,33.19v19h5.35c5.66,0,9.48-3.82,9.48-9.39v-.09a9,9,0,0,0-9.48-9.48Z"/><path class="cls-2" d="M469.75,42.76v-.09c0-8.94,7.05-16.26,16.76-16.26s16.67,7.23,16.67,16.17v.09c0,8.94-7.05,16.26-16.76,16.26S469.75,51.7,469.75,42.76Zm26.19,0v-.09a9.55,9.55,0,0,0-9.52-9.88c-5.57,0-9.43,4.4-9.43,9.79v.09a9.55,9.55,0,0,0,9.52,9.88C492.08,52.56,495.94,48.15,495.94,42.76Z"/><polygon id="Arrow" class="cls-3" points="547.03 42.58 538.18 33.73 538.17 33.73 520.41 15.97 511.56 24.82 529.33 42.58 511.56 60.35 520.41 69.19 538.17 51.43 538.18 51.44 547.03 42.59 547.02 42.58 547.03 42.58"/><path class="cls-4" d="M165.3,47.5V35.37h1.41V47.5Z"/><path class="cls-4" d="M176.06,47.5V41.62a2.37,2.37,0,0,0-.51-1.66,2.06,2.06,0,0,0-1.59-.55,2.62,2.62,0,0,0-2.09.77,3.9,3.9,0,0,0-.66,2.55V47.5h-1.38V38.4H171l.22,1.25h.07a2.81,2.81,0,0,1,1.19-1,3.86,3.86,0,0,1,1.7-.37,3.46,3.46,0,0,1,2.47.79,3.37,3.37,0,0,1,.83,2.54V47.5Z"/><path class="cls-4" d="M188.92,47.67a3.94,3.94,0,0,1-1.62-.33,3.06,3.06,0,0,1-1.23-1H186a12.19,12.19,0,0,1,.1,1.51v3.74h-1.38V38.4h1.12l.19,1.25h.07a3.2,3.2,0,0,1,1.24-1.08,3.75,3.75,0,0,1,1.62-.33,3.36,3.36,0,0,1,2.79,1.24,5.45,5.45,0,0,1,1,3.47,5.41,5.41,0,0,1-1,3.48A3.37,3.37,0,0,1,188.92,47.67Zm-.2-8.26a2.44,2.44,0,0,0-2,.77,4,4,0,0,0-.64,2.46v.31a4.55,4.55,0,0,0,.64,2.74,2.43,2.43,0,0,0,2.05.83,2.13,2.13,0,0,0,1.85-1,4.53,4.53,0,0,0,.67-2.63,4.36,4.36,0,0,0-.67-2.61A2.2,2.2,0,0,0,188.72,39.41Z"/><path class="cls-4" d="M200.7,47.5l-.27-1.29h-.07A3.83,3.83,0,0,1,199,47.37a4.14,4.14,0,0,1-1.69.3,3,3,0,0,1-2.12-.7,2.54,2.54,0,0,1-.77-2q0-2.76,4.41-2.89l1.54,0v-.56a2.31,2.31,0,0,0-.46-1.58,1.9,1.9,0,0,0-1.47-.51,6,6,0,0,0-2.57.7L195.44,39a6.46,6.46,0,0,1,1.47-.57,6.37,6.37,0,0,1,1.61-.21,3.47,3.47,0,0,1,2.41.72,3,3,0,0,1,.78,2.32V47.5Zm-3.11-1a2.79,2.79,0,0,0,2-.71,2.61,2.61,0,0,0,.73-2V43l-1.38.06a5,5,0,0,0-2.37.51,1.54,1.54,0,0,0-.73,1.41,1.42,1.42,0,0,0,.45,1.14A1.88,1.88,0,0,0,197.58,46.53Z"/><path class="cls-4" d="M208.71,38.24a5.39,5.39,0,0,1,1.09.1l-.19,1.28a4.69,4.69,0,0,0-1-.12,2.43,2.43,0,0,0-1.89.9,3.27,3.27,0,0,0-.78,2.23V47.5h-1.38V38.4h1.14l.16,1.69h.07a4,4,0,0,1,1.22-1.37A2.75,2.75,0,0,1,208.71,38.24Z"/><path class="cls-4" d="M214.44,46.53a4.48,4.48,0,0,0,.71-.05,4.76,4.76,0,0,0,.54-.11v1.05a2.5,2.5,0,0,1-.66.18,5,5,0,0,1-.78.07q-2.64,0-2.64-2.78V39.47h-1.3v-.66l1.3-.57.58-1.94h.8V38.4h2.64v1.07H213v5.35a1.84,1.84,0,0,0,.39,1.26A1.36,1.36,0,0,0,214.44,46.53Z"/><path class="cls-4" d="M223.72,47.5V41.62a2.37,2.37,0,0,0-.51-1.66,2.06,2.06,0,0,0-1.59-.55,2.62,2.62,0,0,0-2.09.77,3.9,3.9,0,0,0-.66,2.55V47.5H217.5V38.4h1.12l.22,1.25h.07a2.81,2.81,0,0,1,1.19-1,3.86,3.86,0,0,1,1.7-.37,3.46,3.46,0,0,1,2.47.79,3.37,3.37,0,0,1,.83,2.54V47.5Z"/><path class="cls-4" d="M231.78,47.67a4.18,4.18,0,0,1-3.18-1.23A4.76,4.76,0,0,1,227.43,43a5.27,5.27,0,0,1,1.08-3.49,3.6,3.6,0,0,1,2.91-1.29,3.43,3.43,0,0,1,2.71,1.13,4.31,4.31,0,0,1,1,3v.87h-6.27a3.61,3.61,0,0,0,.81,2.43,2.8,2.8,0,0,0,2.16.83,7.32,7.32,0,0,0,2.91-.62v1.23a7.28,7.28,0,0,1-1.38.45A7.8,7.8,0,0,1,231.78,47.67Zm-.37-8.28a2.25,2.25,0,0,0-1.75.71,3.29,3.29,0,0,0-.77,2h4.76a3,3,0,0,0-.58-2A2,2,0,0,0,231.4,39.39Z"/><path class="cls-4" d="M241.62,38.24a5.39,5.39,0,0,1,1.09.1l-.19,1.28a4.69,4.69,0,0,0-1-.12,2.43,2.43,0,0,0-1.89.9,3.27,3.27,0,0,0-.78,2.23V47.5h-1.38V38.4h1.14l.16,1.69h.07a4,4,0,0,1,1.22-1.37A2.75,2.75,0,0,1,241.62,38.24Z"/><path class="cls-4" d="M250.28,45a2.28,2.28,0,0,1-.95,2,4.44,4.44,0,0,1-2.66.69,5.79,5.79,0,0,1-2.82-.57V45.82a6.79,6.79,0,0,0,1.41.52,5.9,5.9,0,0,0,1.45.19,3.29,3.29,0,0,0,1.66-.34,1.19,1.19,0,0,0,.12-2,7.24,7.24,0,0,0-1.8-.89,9.71,9.71,0,0,1-1.81-.83,2.46,2.46,0,0,1-.8-.8,2.08,2.08,0,0,1-.26-1.07,2,2,0,0,1,.9-1.75,4.22,4.22,0,0,1,2.48-.64,7.26,7.26,0,0,1,2.87.6L249.6,40a6.58,6.58,0,0,0-2.48-.56,2.85,2.85,0,0,0-1.48.31,1,1,0,0,0-.5.85,1,1,0,0,0,.19.62,1.85,1.85,0,0,0,.6.49,13.38,13.38,0,0,0,1.59.67,6,6,0,0,1,2.19,1.19A2.09,2.09,0,0,1,250.28,45Z"/><path class="cls-4" d="M258.74,47.5V41.62a2.37,2.37,0,0,0-.51-1.66,2.06,2.06,0,0,0-1.59-.55,2.6,2.6,0,0,0-2.1.78,4,4,0,0,0-.66,2.56V47.5h-1.38V34.59h1.38V38.5a8.49,8.49,0,0,1-.07,1.17h.08a2.81,2.81,0,0,1,1.16-1,3.76,3.76,0,0,1,1.71-.38,3.51,3.51,0,0,1,2.5.79,3.34,3.34,0,0,1,.83,2.52V47.5Z"/><path class="cls-4" d="M262.84,35.94a.91.91,0,0,1,.23-.69.86.86,0,0,1,1.15,0,.9.9,0,0,1,.24.69.91.91,0,0,1-.24.69.8.8,0,0,1-.57.23.8.8,0,0,1-.58-.23A.93.93,0,0,1,262.84,35.94Zm1.49,11.56H263V38.4h1.38Z"/><path class="cls-4" d="M271.49,47.67a3.94,3.94,0,0,1-1.62-.33,3.06,3.06,0,0,1-1.23-1h-.1a12.19,12.19,0,0,1,.1,1.51v3.74h-1.38V38.4h1.12l.19,1.25h.07a3.2,3.2,0,0,1,1.24-1.08,3.75,3.75,0,0,1,1.62-.33,3.36,3.36,0,0,1,2.79,1.24,5.45,5.45,0,0,1,1,3.47,5.41,5.41,0,0,1-1,3.48A3.37,3.37,0,0,1,271.49,47.67Zm-.2-8.26a2.44,2.44,0,0,0-2,.77,4,4,0,0,0-.64,2.46v.31a4.55,4.55,0,0,0,.64,2.74,2.43,2.43,0,0,0,2.05.83,2.13,2.13,0,0,0,1.85-1,4.53,4.53,0,0,0,.67-2.63,4.36,4.36,0,0,0-.67-2.61A2.2,2.2,0,0,0,271.29,39.41Z"/><path class="cls-4" d="M289.52,47.5l-1.67-5.34q-.16-.49-.59-2.22h-.07q-.33,1.45-.58,2.24l-1.72,5.32H283.3l-2.48-9.1h1.44l1.34,5.22a21.21,21.21,0,0,1,.53,2.42h.07q.09-.47.29-1.22t.35-1.19l1.67-5.22H288l1.63,5.22a17.5,17.5,0,0,1,.63,2.4h.07a8.9,8.9,0,0,1,.18-.92q.15-.62,1.73-6.7h1.43l-2.51,9.1Z"/><path class="cls-4" d="M295.19,35.94a.92.92,0,0,1,.23-.69.86.86,0,0,1,1.15,0,.9.9,0,0,1,.24.69.91.91,0,0,1-.24.69.81.81,0,0,1-.57.23.8.8,0,0,1-.58-.23A.93.93,0,0,1,295.19,35.94Zm1.49,11.56h-1.38V38.4h1.38Z"/><path class="cls-4" d="M302.55,46.53a4.49,4.49,0,0,0,.71-.05,4.77,4.77,0,0,0,.54-.11v1.05a2.5,2.5,0,0,1-.66.18,5,5,0,0,1-.78.07q-2.64,0-2.64-2.78V39.47h-1.3v-.66l1.3-.57.58-1.94h.8V38.4h2.64v1.07h-2.64v5.35a1.84,1.84,0,0,0,.39,1.26A1.36,1.36,0,0,0,302.55,46.53Z"/><path class="cls-4" d="M311.84,47.5V41.62a2.37,2.37,0,0,0-.51-1.66,2.06,2.06,0,0,0-1.58-.55,2.59,2.59,0,0,0-2.1.78,4,4,0,0,0-.66,2.56V47.5h-1.38V34.59H307V38.5a8.57,8.57,0,0,1-.07,1.17H307a2.8,2.8,0,0,1,1.16-1,3.76,3.76,0,0,1,1.71-.38,3.51,3.51,0,0,1,2.5.79,3.34,3.34,0,0,1,.83,2.52V47.5Z"/></svg>